<mxfile host="app.diagrams.net" agent="Mozilla/5.0 (Windows NT 10.0; Win64; x64) AppleWebKit/537.36 (KHTML, like Gecko) Chrome/127.0.0.0 Safari/537.36" version="24.7.6">
  <diagram id="R2lEEEUBdFMjLlhIrx00" name="Page-1">
    <mxGraphModel dx="1518" dy="1755" grid="1" gridSize="10" guides="1" tooltips="1" connect="1" arrows="1" fold="1" page="1" pageScale="1" pageWidth="850" pageHeight="1100" math="0" shadow="0" extFonts="Permanent Marker^https://fonts.googleapis.com/css?family=Permanent+Marker">
      <root>
        <mxCell id="0" />
        <mxCell id="1" parent="0" />
        <mxCell id="C-vyLk0tnHw3VtMMgP7b-13" value="Brands" style="shape=table;startSize=30;container=1;collapsible=1;childLayout=tableLayout;fixedRows=1;rowLines=0;fontStyle=1;align=center;resizeLast=1;" parent="1" vertex="1">
          <mxGeometry x="70" y="310" width="250" height="130" as="geometry" />
        </mxCell>
        <mxCell id="C-vyLk0tnHw3VtMMgP7b-14" value="" style="shape=partialRectangle;collapsible=0;dropTarget=0;pointerEvents=0;fillColor=none;points=[[0,0.5],[1,0.5]];portConstraint=eastwest;top=0;left=0;right=0;bottom=1;" parent="C-vyLk0tnHw3VtMMgP7b-13" vertex="1">
          <mxGeometry y="30" width="250" height="30" as="geometry" />
        </mxCell>
        <mxCell id="C-vyLk0tnHw3VtMMgP7b-15" value="PK" style="shape=partialRectangle;overflow=hidden;connectable=0;fillColor=none;top=0;left=0;bottom=0;right=0;fontStyle=1;" parent="C-vyLk0tnHw3VtMMgP7b-14" vertex="1">
          <mxGeometry width="30" height="30" as="geometry">
            <mxRectangle width="30" height="30" as="alternateBounds" />
          </mxGeometry>
        </mxCell>
        <mxCell id="C-vyLk0tnHw3VtMMgP7b-16" value="id int NOT NULL " style="shape=partialRectangle;overflow=hidden;connectable=0;fillColor=none;top=0;left=0;bottom=0;right=0;align=left;spacingLeft=6;fontStyle=5;" parent="C-vyLk0tnHw3VtMMgP7b-14" vertex="1">
          <mxGeometry x="30" width="220" height="30" as="geometry">
            <mxRectangle width="220" height="30" as="alternateBounds" />
          </mxGeometry>
        </mxCell>
        <mxCell id="C-vyLk0tnHw3VtMMgP7b-17" value="" style="shape=partialRectangle;collapsible=0;dropTarget=0;pointerEvents=0;fillColor=none;points=[[0,0.5],[1,0.5]];portConstraint=eastwest;top=0;left=0;right=0;bottom=0;" parent="C-vyLk0tnHw3VtMMgP7b-13" vertex="1">
          <mxGeometry y="60" width="250" height="30" as="geometry" />
        </mxCell>
        <mxCell id="C-vyLk0tnHw3VtMMgP7b-18" value="FK1" style="shape=partialRectangle;overflow=hidden;connectable=0;fillColor=none;top=0;left=0;bottom=0;right=0;" parent="C-vyLk0tnHw3VtMMgP7b-17" vertex="1">
          <mxGeometry width="30" height="30" as="geometry">
            <mxRectangle width="30" height="30" as="alternateBounds" />
          </mxGeometry>
        </mxCell>
        <mxCell id="C-vyLk0tnHw3VtMMgP7b-19" value="order_id int NOT NULL" style="shape=partialRectangle;overflow=hidden;connectable=0;fillColor=none;top=0;left=0;bottom=0;right=0;align=left;spacingLeft=6;" parent="C-vyLk0tnHw3VtMMgP7b-17" vertex="1">
          <mxGeometry x="30" width="220" height="30" as="geometry">
            <mxRectangle width="220" height="30" as="alternateBounds" />
          </mxGeometry>
        </mxCell>
        <mxCell id="C-vyLk0tnHw3VtMMgP7b-20" value="" style="shape=partialRectangle;collapsible=0;dropTarget=0;pointerEvents=0;fillColor=none;points=[[0,0.5],[1,0.5]];portConstraint=eastwest;top=0;left=0;right=0;bottom=0;" parent="C-vyLk0tnHw3VtMMgP7b-13" vertex="1">
          <mxGeometry y="90" width="250" height="30" as="geometry" />
        </mxCell>
        <mxCell id="C-vyLk0tnHw3VtMMgP7b-21" value="" style="shape=partialRectangle;overflow=hidden;connectable=0;fillColor=none;top=0;left=0;bottom=0;right=0;" parent="C-vyLk0tnHw3VtMMgP7b-20" vertex="1">
          <mxGeometry width="30" height="30" as="geometry">
            <mxRectangle width="30" height="30" as="alternateBounds" />
          </mxGeometry>
        </mxCell>
        <mxCell id="C-vyLk0tnHw3VtMMgP7b-22" value="shipment_date date NOT NULL" style="shape=partialRectangle;overflow=hidden;connectable=0;fillColor=none;top=0;left=0;bottom=0;right=0;align=left;spacingLeft=6;" parent="C-vyLk0tnHw3VtMMgP7b-20" vertex="1">
          <mxGeometry x="30" width="220" height="30" as="geometry">
            <mxRectangle width="220" height="30" as="alternateBounds" />
          </mxGeometry>
        </mxCell>
        <mxCell id="C-vyLk0tnHw3VtMMgP7b-23" value="Units" style="shape=table;startSize=30;container=1;collapsible=1;childLayout=tableLayout;fixedRows=1;rowLines=0;fontStyle=1;align=center;resizeLast=1;" parent="1" vertex="1">
          <mxGeometry x="770" y="340" width="250" height="100" as="geometry" />
        </mxCell>
        <mxCell id="C-vyLk0tnHw3VtMMgP7b-24" value="" style="shape=partialRectangle;collapsible=0;dropTarget=0;pointerEvents=0;fillColor=none;points=[[0,0.5],[1,0.5]];portConstraint=eastwest;top=0;left=0;right=0;bottom=1;" parent="C-vyLk0tnHw3VtMMgP7b-23" vertex="1">
          <mxGeometry y="30" width="250" height="30" as="geometry" />
        </mxCell>
        <mxCell id="C-vyLk0tnHw3VtMMgP7b-25" value="PK" style="shape=partialRectangle;overflow=hidden;connectable=0;fillColor=none;top=0;left=0;bottom=0;right=0;fontStyle=1;" parent="C-vyLk0tnHw3VtMMgP7b-24" vertex="1">
          <mxGeometry width="30" height="30" as="geometry">
            <mxRectangle width="30" height="30" as="alternateBounds" />
          </mxGeometry>
        </mxCell>
        <mxCell id="C-vyLk0tnHw3VtMMgP7b-26" value="id int NOT NULL " style="shape=partialRectangle;overflow=hidden;connectable=0;fillColor=none;top=0;left=0;bottom=0;right=0;align=left;spacingLeft=6;fontStyle=5;" parent="C-vyLk0tnHw3VtMMgP7b-24" vertex="1">
          <mxGeometry x="30" width="220" height="30" as="geometry">
            <mxRectangle width="220" height="30" as="alternateBounds" />
          </mxGeometry>
        </mxCell>
        <mxCell id="C-vyLk0tnHw3VtMMgP7b-27" value="" style="shape=partialRectangle;collapsible=0;dropTarget=0;pointerEvents=0;fillColor=none;points=[[0,0.5],[1,0.5]];portConstraint=eastwest;top=0;left=0;right=0;bottom=0;" parent="C-vyLk0tnHw3VtMMgP7b-23" vertex="1">
          <mxGeometry y="60" width="250" height="30" as="geometry" />
        </mxCell>
        <mxCell id="C-vyLk0tnHw3VtMMgP7b-28" value="" style="shape=partialRectangle;overflow=hidden;connectable=0;fillColor=none;top=0;left=0;bottom=0;right=0;" parent="C-vyLk0tnHw3VtMMgP7b-27" vertex="1">
          <mxGeometry width="30" height="30" as="geometry">
            <mxRectangle width="30" height="30" as="alternateBounds" />
          </mxGeometry>
        </mxCell>
        <mxCell id="C-vyLk0tnHw3VtMMgP7b-29" value="id char(50) NOT NULL" style="shape=partialRectangle;overflow=hidden;connectable=0;fillColor=none;top=0;left=0;bottom=0;right=0;align=left;spacingLeft=6;" parent="C-vyLk0tnHw3VtMMgP7b-27" vertex="1">
          <mxGeometry x="30" width="220" height="30" as="geometry">
            <mxRectangle width="220" height="30" as="alternateBounds" />
          </mxGeometry>
        </mxCell>
        <mxCell id="VkYsqImHZX3zR1S9aV2n-1" value="Categories" style="shape=table;startSize=30;container=1;collapsible=1;childLayout=tableLayout;fixedRows=1;rowLines=0;fontStyle=1;align=center;resizeLast=1;" parent="1" vertex="1">
          <mxGeometry x="430" y="340" width="250" height="130" as="geometry" />
        </mxCell>
        <mxCell id="VkYsqImHZX3zR1S9aV2n-2" value="" style="shape=partialRectangle;collapsible=0;dropTarget=0;pointerEvents=0;fillColor=none;points=[[0,0.5],[1,0.5]];portConstraint=eastwest;top=0;left=0;right=0;bottom=1;" parent="VkYsqImHZX3zR1S9aV2n-1" vertex="1">
          <mxGeometry y="30" width="250" height="30" as="geometry" />
        </mxCell>
        <mxCell id="VkYsqImHZX3zR1S9aV2n-3" value="PK" style="shape=partialRectangle;overflow=hidden;connectable=0;fillColor=none;top=0;left=0;bottom=0;right=0;fontStyle=1;" parent="VkYsqImHZX3zR1S9aV2n-2" vertex="1">
          <mxGeometry width="30" height="30" as="geometry">
            <mxRectangle width="30" height="30" as="alternateBounds" />
          </mxGeometry>
        </mxCell>
        <mxCell id="VkYsqImHZX3zR1S9aV2n-4" value="cateogory_id int NOT NULL " style="shape=partialRectangle;overflow=hidden;connectable=0;fillColor=none;top=0;left=0;bottom=0;right=0;align=left;spacingLeft=6;fontStyle=5;" parent="VkYsqImHZX3zR1S9aV2n-2" vertex="1">
          <mxGeometry x="30" width="220" height="30" as="geometry">
            <mxRectangle width="220" height="30" as="alternateBounds" />
          </mxGeometry>
        </mxCell>
        <mxCell id="VkYsqImHZX3zR1S9aV2n-5" value="" style="shape=partialRectangle;collapsible=0;dropTarget=0;pointerEvents=0;fillColor=none;points=[[0,0.5],[1,0.5]];portConstraint=eastwest;top=0;left=0;right=0;bottom=0;" parent="VkYsqImHZX3zR1S9aV2n-1" vertex="1">
          <mxGeometry y="60" width="250" height="30" as="geometry" />
        </mxCell>
        <mxCell id="VkYsqImHZX3zR1S9aV2n-6" value="FK1" style="shape=partialRectangle;overflow=hidden;connectable=0;fillColor=none;top=0;left=0;bottom=0;right=0;" parent="VkYsqImHZX3zR1S9aV2n-5" vertex="1">
          <mxGeometry width="30" height="30" as="geometry">
            <mxRectangle width="30" height="30" as="alternateBounds" />
          </mxGeometry>
        </mxCell>
        <mxCell id="VkYsqImHZX3zR1S9aV2n-7" value="order_id int NOT NULL" style="shape=partialRectangle;overflow=hidden;connectable=0;fillColor=none;top=0;left=0;bottom=0;right=0;align=left;spacingLeft=6;" parent="VkYsqImHZX3zR1S9aV2n-5" vertex="1">
          <mxGeometry x="30" width="220" height="30" as="geometry">
            <mxRectangle width="220" height="30" as="alternateBounds" />
          </mxGeometry>
        </mxCell>
        <mxCell id="VkYsqImHZX3zR1S9aV2n-8" value="" style="shape=partialRectangle;collapsible=0;dropTarget=0;pointerEvents=0;fillColor=none;points=[[0,0.5],[1,0.5]];portConstraint=eastwest;top=0;left=0;right=0;bottom=0;" parent="VkYsqImHZX3zR1S9aV2n-1" vertex="1">
          <mxGeometry y="90" width="250" height="30" as="geometry" />
        </mxCell>
        <mxCell id="VkYsqImHZX3zR1S9aV2n-9" value="" style="shape=partialRectangle;overflow=hidden;connectable=0;fillColor=none;top=0;left=0;bottom=0;right=0;" parent="VkYsqImHZX3zR1S9aV2n-8" vertex="1">
          <mxGeometry width="30" height="30" as="geometry">
            <mxRectangle width="30" height="30" as="alternateBounds" />
          </mxGeometry>
        </mxCell>
        <mxCell id="VkYsqImHZX3zR1S9aV2n-10" value="shipment_date date NOT NULL" style="shape=partialRectangle;overflow=hidden;connectable=0;fillColor=none;top=0;left=0;bottom=0;right=0;align=left;spacingLeft=6;" parent="VkYsqImHZX3zR1S9aV2n-8" vertex="1">
          <mxGeometry x="30" width="220" height="30" as="geometry">
            <mxRectangle width="220" height="30" as="alternateBounds" />
          </mxGeometry>
        </mxCell>
        <mxCell id="VkYsqImHZX3zR1S9aV2n-20" style="edgeStyle=orthogonalEdgeStyle;rounded=0;orthogonalLoop=1;jettySize=auto;html=1;entryX=0;entryY=0.5;entryDx=0;entryDy=0;" parent="1" source="C-vyLk0tnHw3VtMMgP7b-9" target="C-vyLk0tnHw3VtMMgP7b-14" edge="1">
          <mxGeometry relative="1" as="geometry" />
        </mxCell>
        <mxCell id="VkYsqImHZX3zR1S9aV2n-21" style="edgeStyle=orthogonalEdgeStyle;rounded=0;orthogonalLoop=1;jettySize=auto;html=1;entryX=0;entryY=0.5;entryDx=0;entryDy=0;" parent="1" source="VkYsqImHZX3zR1S9aV2n-11" target="C-vyLk0tnHw3VtMMgP7b-24" edge="1">
          <mxGeometry relative="1" as="geometry">
            <Array as="points">
              <mxPoint x="710" y="154" />
              <mxPoint x="710" y="385" />
            </Array>
          </mxGeometry>
        </mxCell>
        <mxCell id="VkYsqImHZX3zR1S9aV2n-24" value="" style="group" parent="1" vertex="1" connectable="0">
          <mxGeometry x="370" y="-40" width="250" height="310" as="geometry" />
        </mxCell>
        <mxCell id="VkYsqImHZX3zR1S9aV2n-25" value="" style="group" parent="VkYsqImHZX3zR1S9aV2n-24" vertex="1" connectable="0">
          <mxGeometry width="250" height="310" as="geometry" />
        </mxCell>
        <mxCell id="VkYsqImHZX3zR1S9aV2n-19" value="" style="group" parent="VkYsqImHZX3zR1S9aV2n-25" vertex="1" connectable="0">
          <mxGeometry width="250" height="310" as="geometry" />
        </mxCell>
        <mxCell id="VkYsqImHZX3zR1S9aV2n-11" value="unit_id id int unsigned" style="shape=partialRectangle;overflow=hidden;connectable=1;fillColor=none;top=1;left=1;bottom=1;right=0;align=left;spacingLeft=6;labelBorderColor=none;" parent="VkYsqImHZX3zR1S9aV2n-19" vertex="1">
          <mxGeometry x="30" y="159.2758620689655" width="220" height="32.068965517241374" as="geometry">
            <mxRectangle width="220" height="30" as="alternateBounds" />
          </mxGeometry>
        </mxCell>
        <mxCell id="VkYsqImHZX3zR1S9aV2n-12" value="FK1" style="shape=partialRectangle;overflow=hidden;connectable=0;fillColor=none;top=1;left=0;bottom=0;right=0;" parent="VkYsqImHZX3zR1S9aV2n-19" vertex="1">
          <mxGeometry y="127.20689655172413" width="30" height="32.068965517241374" as="geometry">
            <mxRectangle width="30" height="30" as="alternateBounds" />
          </mxGeometry>
        </mxCell>
        <mxCell id="VkYsqImHZX3zR1S9aV2n-18" value="FK2" style="shape=partialRectangle;overflow=hidden;connectable=0;fillColor=none;top=1;left=0;bottom=1;right=0;" parent="VkYsqImHZX3zR1S9aV2n-19" vertex="1">
          <mxGeometry y="159.2758620689655" width="30" height="32.068965517241374" as="geometry">
            <mxRectangle width="30" height="30" as="alternateBounds" />
          </mxGeometry>
        </mxCell>
        <mxCell id="klve59LVpFGcTII6Jys7-24" value="" style="group" parent="VkYsqImHZX3zR1S9aV2n-19" vertex="1" connectable="0">
          <mxGeometry width="250" height="310" as="geometry" />
        </mxCell>
        <mxCell id="klve59LVpFGcTII6Jys7-22" value="seller_id id int unsigned" style="shape=partialRectangle;overflow=hidden;connectable=1;fillColor=none;top=0;left=1;bottom=1;right=0;align=left;spacingLeft=6;labelBorderColor=none;" parent="klve59LVpFGcTII6Jys7-24" vertex="1">
          <mxGeometry x="30" y="224.48275862068965" width="220" height="32.068965517241374" as="geometry">
            <mxRectangle width="220" height="30" as="alternateBounds" />
          </mxGeometry>
        </mxCell>
        <mxCell id="klve59LVpFGcTII6Jys7-23" value="FK3" style="shape=partialRectangle;overflow=hidden;connectable=1;fillColor=none;top=0;left=0;bottom=1;right=0;" parent="klve59LVpFGcTII6Jys7-24" vertex="1">
          <mxGeometry y="224.48275862068965" width="30" height="32.068965517241374" as="geometry">
            <mxRectangle width="30" height="30" as="alternateBounds" />
          </mxGeometry>
        </mxCell>
        <mxCell id="klve59LVpFGcTII6Jys7-29" value="" style="group" parent="klve59LVpFGcTII6Jys7-24" vertex="1" connectable="0">
          <mxGeometry width="250" height="310" as="geometry" />
        </mxCell>
        <mxCell id="C-vyLk0tnHw3VtMMgP7b-2" value="Products" style="shape=table;startSize=30;container=1;collapsible=1;childLayout=tableLayout;fixedRows=1;rowLines=0;fontStyle=1;align=center;resizeLast=1;" parent="klve59LVpFGcTII6Jys7-29" vertex="1">
          <mxGeometry width="250" height="310" as="geometry" />
        </mxCell>
        <mxCell id="C-vyLk0tnHw3VtMMgP7b-3" value="" style="shape=partialRectangle;collapsible=0;dropTarget=0;pointerEvents=0;fillColor=none;points=[[0,0.5],[1,0.5]];portConstraint=eastwest;top=0;left=0;right=0;bottom=1;" parent="C-vyLk0tnHw3VtMMgP7b-2" vertex="1">
          <mxGeometry y="30" width="250" height="30" as="geometry" />
        </mxCell>
        <mxCell id="C-vyLk0tnHw3VtMMgP7b-4" value="PK" style="shape=partialRectangle;overflow=hidden;connectable=0;fillColor=none;top=0;left=0;bottom=0;right=0;fontStyle=1;" parent="C-vyLk0tnHw3VtMMgP7b-3" vertex="1">
          <mxGeometry width="30" height="30" as="geometry">
            <mxRectangle width="30" height="30" as="alternateBounds" />
          </mxGeometry>
        </mxCell>
        <mxCell id="C-vyLk0tnHw3VtMMgP7b-5" value="id int NOT NULL " style="shape=partialRectangle;overflow=hidden;connectable=0;fillColor=none;top=0;left=0;bottom=0;right=0;align=left;spacingLeft=6;fontStyle=5;" parent="C-vyLk0tnHw3VtMMgP7b-3" vertex="1">
          <mxGeometry x="30" width="220" height="30" as="geometry">
            <mxRectangle width="220" height="30" as="alternateBounds" />
          </mxGeometry>
        </mxCell>
        <mxCell id="C-vyLk0tnHw3VtMMgP7b-6" value="" style="shape=partialRectangle;collapsible=0;dropTarget=0;pointerEvents=0;fillColor=none;points=[[0,0.5],[1,0.5]];portConstraint=eastwest;top=0;left=0;right=0;bottom=0;" parent="C-vyLk0tnHw3VtMMgP7b-2" vertex="1">
          <mxGeometry y="60" width="250" height="30" as="geometry" />
        </mxCell>
        <mxCell id="C-vyLk0tnHw3VtMMgP7b-7" value="" style="shape=partialRectangle;overflow=hidden;connectable=0;fillColor=none;top=0;left=0;bottom=0;right=0;" parent="C-vyLk0tnHw3VtMMgP7b-6" vertex="1">
          <mxGeometry width="30" height="30" as="geometry">
            <mxRectangle width="30" height="30" as="alternateBounds" />
          </mxGeometry>
        </mxCell>
        <mxCell id="C-vyLk0tnHw3VtMMgP7b-8" value="product_name varchar(255)" style="shape=partialRectangle;overflow=hidden;connectable=0;fillColor=none;top=0;left=0;bottom=0;right=0;align=left;spacingLeft=6;" parent="C-vyLk0tnHw3VtMMgP7b-6" vertex="1">
          <mxGeometry x="30" width="220" height="30" as="geometry">
            <mxRectangle width="220" height="30" as="alternateBounds" />
          </mxGeometry>
        </mxCell>
        <mxCell id="VkYsqImHZX3zR1S9aV2n-15" value="" style="shape=partialRectangle;collapsible=0;dropTarget=0;pointerEvents=0;fillColor=none;points=[[0,0.5],[1,0.5]];portConstraint=eastwest;top=0;left=0;right=0;bottom=0;" parent="C-vyLk0tnHw3VtMMgP7b-2" vertex="1">
          <mxGeometry y="90" width="250" height="30" as="geometry" />
        </mxCell>
        <mxCell id="VkYsqImHZX3zR1S9aV2n-16" value="" style="shape=partialRectangle;overflow=hidden;connectable=0;fillColor=none;top=1;left=0;bottom=0;right=0;" parent="VkYsqImHZX3zR1S9aV2n-15" vertex="1">
          <mxGeometry width="30" height="30" as="geometry">
            <mxRectangle width="30" height="30" as="alternateBounds" />
          </mxGeometry>
        </mxCell>
        <mxCell id="VkYsqImHZX3zR1S9aV2n-17" value="product_desc text" style="shape=partialRectangle;overflow=hidden;connectable=0;fillColor=none;top=1;left=0;bottom=0;right=0;align=left;spacingLeft=6;" parent="VkYsqImHZX3zR1S9aV2n-15" vertex="1">
          <mxGeometry x="30" width="220" height="30" as="geometry">
            <mxRectangle width="220" height="30" as="alternateBounds" />
          </mxGeometry>
        </mxCell>
        <mxCell id="C-vyLk0tnHw3VtMMgP7b-9" value="" style="shape=partialRectangle;collapsible=0;dropTarget=0;pointerEvents=0;fillColor=none;points=[[0,0.5],[1,0.5]];portConstraint=eastwest;top=0;left=0;right=0;bottom=0;" parent="C-vyLk0tnHw3VtMMgP7b-2" vertex="1">
          <mxGeometry y="120" width="250" height="30" as="geometry" />
        </mxCell>
        <mxCell id="C-vyLk0tnHw3VtMMgP7b-10" value="" style="shape=partialRectangle;overflow=hidden;connectable=0;fillColor=none;top=0;left=0;bottom=0;right=0;" parent="C-vyLk0tnHw3VtMMgP7b-9" vertex="1">
          <mxGeometry width="30" height="30" as="geometry">
            <mxRectangle width="30" height="30" as="alternateBounds" />
          </mxGeometry>
        </mxCell>
        <mxCell id="C-vyLk0tnHw3VtMMgP7b-11" value="brand_id int unsigned" style="shape=partialRectangle;overflow=hidden;connectable=0;fillColor=none;top=1;left=0;bottom=0;right=0;align=left;spacingLeft=6;" parent="C-vyLk0tnHw3VtMMgP7b-9" vertex="1">
          <mxGeometry x="30" width="220" height="30" as="geometry">
            <mxRectangle width="220" height="30" as="alternateBounds" />
          </mxGeometry>
        </mxCell>
        <mxCell id="klve59LVpFGcTII6Jys7-27" value="prod_gallery_imgs text" style="shape=partialRectangle;overflow=hidden;connectable=1;fillColor=none;top=0;left=1;bottom=1;right=0;align=left;spacingLeft=6;labelBorderColor=none;" parent="klve59LVpFGcTII6Jys7-29" vertex="1">
          <mxGeometry x="30" y="256.551724137931" width="220" height="32.068965517241374" as="geometry">
            <mxRectangle width="220" height="30" as="alternateBounds" />
          </mxGeometry>
        </mxCell>
        <mxCell id="klve59LVpFGcTII6Jys7-28" value="FK3" style="shape=partialRectangle;overflow=hidden;connectable=1;fillColor=none;top=0;left=0;bottom=1;right=0;" parent="klve59LVpFGcTII6Jys7-29" vertex="1">
          <mxGeometry y="256.551724137931" width="30" height="32.068965517241374" as="geometry">
            <mxRectangle width="30" height="30" as="alternateBounds" />
          </mxGeometry>
        </mxCell>
        <mxCell id="VkYsqImHZX3zR1S9aV2n-22" value="category_id id int unsigned" style="shape=partialRectangle;overflow=hidden;connectable=1;fillColor=none;top=0;left=1;bottom=1;right=0;align=left;spacingLeft=6;labelBorderColor=none;" parent="VkYsqImHZX3zR1S9aV2n-25" vertex="1">
          <mxGeometry x="30" y="191.3448275862069" width="220" height="32.068965517241374" as="geometry">
            <mxRectangle width="220" height="30" as="alternateBounds" />
          </mxGeometry>
        </mxCell>
        <mxCell id="VkYsqImHZX3zR1S9aV2n-23" value="FK3" style="shape=partialRectangle;overflow=hidden;connectable=1;fillColor=none;top=0;left=0;bottom=1;right=0;" parent="VkYsqImHZX3zR1S9aV2n-25" vertex="1">
          <mxGeometry y="191.3448275862069" width="30" height="32.068965517241374" as="geometry">
            <mxRectangle width="30" height="30" as="alternateBounds" />
          </mxGeometry>
        </mxCell>
        <mxCell id="VkYsqImHZX3zR1S9aV2n-26" style="edgeStyle=orthogonalEdgeStyle;rounded=0;orthogonalLoop=1;jettySize=auto;html=1;entryX=0;entryY=0.5;entryDx=0;entryDy=0;" parent="1" source="VkYsqImHZX3zR1S9aV2n-23" target="VkYsqImHZX3zR1S9aV2n-2" edge="1">
          <mxGeometry relative="1" as="geometry">
            <Array as="points">
              <mxPoint x="300" y="154" />
              <mxPoint x="300" y="254" />
              <mxPoint x="350" y="254" />
              <mxPoint x="350" y="385" />
            </Array>
          </mxGeometry>
        </mxCell>
        <mxCell id="z2yPPeF7bbDRtPcRpVXs-11" value="Users" style="shape=table;startSize=30;container=1;collapsible=1;childLayout=tableLayout;fixedRows=1;rowLines=0;fontStyle=1;align=center;resizeLast=1;" parent="1" vertex="1">
          <mxGeometry x="1070" y="210" width="250" height="130" as="geometry" />
        </mxCell>
        <mxCell id="z2yPPeF7bbDRtPcRpVXs-12" value="" style="shape=partialRectangle;collapsible=0;dropTarget=0;pointerEvents=0;fillColor=none;points=[[0,0.5],[1,0.5]];portConstraint=eastwest;top=0;left=0;right=0;bottom=1;" parent="z2yPPeF7bbDRtPcRpVXs-11" vertex="1">
          <mxGeometry y="30" width="250" height="30" as="geometry" />
        </mxCell>
        <mxCell id="z2yPPeF7bbDRtPcRpVXs-13" value="PK" style="shape=partialRectangle;overflow=hidden;connectable=0;fillColor=none;top=0;left=0;bottom=0;right=0;fontStyle=1;" parent="z2yPPeF7bbDRtPcRpVXs-12" vertex="1">
          <mxGeometry width="30" height="30" as="geometry">
            <mxRectangle width="30" height="30" as="alternateBounds" />
          </mxGeometry>
        </mxCell>
        <mxCell id="z2yPPeF7bbDRtPcRpVXs-14" value="id int NOT NULL " style="shape=partialRectangle;overflow=hidden;connectable=0;fillColor=none;top=0;left=0;bottom=0;right=0;align=left;spacingLeft=6;fontStyle=5;" parent="z2yPPeF7bbDRtPcRpVXs-12" vertex="1">
          <mxGeometry x="30" width="220" height="30" as="geometry">
            <mxRectangle width="220" height="30" as="alternateBounds" />
          </mxGeometry>
        </mxCell>
        <mxCell id="z2yPPeF7bbDRtPcRpVXs-15" value="" style="shape=partialRectangle;collapsible=0;dropTarget=0;pointerEvents=0;fillColor=none;points=[[0,0.5],[1,0.5]];portConstraint=eastwest;top=0;left=0;right=0;bottom=0;" parent="z2yPPeF7bbDRtPcRpVXs-11" vertex="1">
          <mxGeometry y="60" width="250" height="30" as="geometry" />
        </mxCell>
        <mxCell id="z2yPPeF7bbDRtPcRpVXs-16" value="FK1" style="shape=partialRectangle;overflow=hidden;connectable=0;fillColor=none;top=0;left=0;bottom=0;right=0;" parent="z2yPPeF7bbDRtPcRpVXs-15" vertex="1">
          <mxGeometry width="30" height="30" as="geometry">
            <mxRectangle width="30" height="30" as="alternateBounds" />
          </mxGeometry>
        </mxCell>
        <mxCell id="z2yPPeF7bbDRtPcRpVXs-17" value="id int NOT NULL" style="shape=partialRectangle;overflow=hidden;connectable=0;fillColor=none;top=0;left=0;bottom=0;right=0;align=left;spacingLeft=6;" parent="z2yPPeF7bbDRtPcRpVXs-15" vertex="1">
          <mxGeometry x="30" width="220" height="30" as="geometry">
            <mxRectangle width="220" height="30" as="alternateBounds" />
          </mxGeometry>
        </mxCell>
        <mxCell id="z2yPPeF7bbDRtPcRpVXs-18" value="" style="shape=partialRectangle;collapsible=0;dropTarget=0;pointerEvents=0;fillColor=none;points=[[0,0.5],[1,0.5]];portConstraint=eastwest;top=0;left=0;right=0;bottom=0;" parent="z2yPPeF7bbDRtPcRpVXs-11" vertex="1">
          <mxGeometry y="90" width="250" height="30" as="geometry" />
        </mxCell>
        <mxCell id="z2yPPeF7bbDRtPcRpVXs-19" value="" style="shape=partialRectangle;overflow=hidden;connectable=0;fillColor=none;top=0;left=0;bottom=0;right=0;" parent="z2yPPeF7bbDRtPcRpVXs-18" vertex="1">
          <mxGeometry width="30" height="30" as="geometry">
            <mxRectangle width="30" height="30" as="alternateBounds" />
          </mxGeometry>
        </mxCell>
        <mxCell id="z2yPPeF7bbDRtPcRpVXs-20" value="name  NOT NULL" style="shape=partialRectangle;overflow=hidden;connectable=0;fillColor=none;top=0;left=0;bottom=0;right=0;align=left;spacingLeft=6;" parent="z2yPPeF7bbDRtPcRpVXs-18" vertex="1">
          <mxGeometry x="30" width="220" height="30" as="geometry">
            <mxRectangle width="220" height="30" as="alternateBounds" />
          </mxGeometry>
        </mxCell>
        <mxCell id="z2yPPeF7bbDRtPcRpVXs-22" style="edgeStyle=orthogonalEdgeStyle;rounded=0;orthogonalLoop=1;jettySize=auto;html=1;" parent="1" source="z2yPPeF7bbDRtPcRpVXs-8" target="z2yPPeF7bbDRtPcRpVXs-12" edge="1">
          <mxGeometry relative="1" as="geometry" />
        </mxCell>
        <mxCell id="z2yPPeF7bbDRtPcRpVXs-23" style="edgeStyle=orthogonalEdgeStyle;rounded=0;orthogonalLoop=1;jettySize=auto;html=1;" parent="1" source="z2yPPeF7bbDRtPcRpVXs-5" target="C-vyLk0tnHw3VtMMgP7b-3" edge="1">
          <mxGeometry relative="1" as="geometry" />
        </mxCell>
        <mxCell id="z2yPPeF7bbDRtPcRpVXs-39" value="" style="group" parent="1" vertex="1" connectable="0">
          <mxGeometry x="650" y="-110" width="250" height="200" as="geometry" />
        </mxCell>
        <mxCell id="z2yPPeF7bbDRtPcRpVXs-1" value="Reviews" style="shape=table;startSize=30;container=1;collapsible=1;childLayout=tableLayout;fixedRows=1;rowLines=0;fontStyle=1;align=center;resizeLast=1;" parent="z2yPPeF7bbDRtPcRpVXs-39" vertex="1">
          <mxGeometry width="250" height="200" as="geometry" />
        </mxCell>
        <mxCell id="z2yPPeF7bbDRtPcRpVXs-2" value="" style="shape=partialRectangle;collapsible=0;dropTarget=0;pointerEvents=0;fillColor=none;points=[[0,0.5],[1,0.5]];portConstraint=eastwest;top=0;left=0;right=0;bottom=1;" parent="z2yPPeF7bbDRtPcRpVXs-1" vertex="1">
          <mxGeometry y="30" width="250" height="30" as="geometry" />
        </mxCell>
        <mxCell id="z2yPPeF7bbDRtPcRpVXs-3" value="PK" style="shape=partialRectangle;overflow=hidden;connectable=0;fillColor=none;top=0;left=0;bottom=0;right=0;fontStyle=1;" parent="z2yPPeF7bbDRtPcRpVXs-2" vertex="1">
          <mxGeometry width="30" height="30" as="geometry">
            <mxRectangle width="30" height="30" as="alternateBounds" />
          </mxGeometry>
        </mxCell>
        <mxCell id="z2yPPeF7bbDRtPcRpVXs-4" value="id int NOT NULL " style="shape=partialRectangle;overflow=hidden;connectable=0;fillColor=none;top=0;left=0;bottom=0;right=0;align=left;spacingLeft=6;fontStyle=5;" parent="z2yPPeF7bbDRtPcRpVXs-2" vertex="1">
          <mxGeometry x="30" width="220" height="30" as="geometry">
            <mxRectangle width="220" height="30" as="alternateBounds" />
          </mxGeometry>
        </mxCell>
        <mxCell id="z2yPPeF7bbDRtPcRpVXs-5" value="" style="shape=partialRectangle;collapsible=0;dropTarget=0;pointerEvents=0;fillColor=none;points=[[0,0.5],[1,0.5]];portConstraint=eastwest;top=0;left=0;right=0;bottom=0;" parent="z2yPPeF7bbDRtPcRpVXs-1" vertex="1">
          <mxGeometry y="60" width="250" height="30" as="geometry" />
        </mxCell>
        <mxCell id="z2yPPeF7bbDRtPcRpVXs-6" value="FK1" style="shape=partialRectangle;overflow=hidden;connectable=0;fillColor=none;top=0;left=0;bottom=0;right=0;" parent="z2yPPeF7bbDRtPcRpVXs-5" vertex="1">
          <mxGeometry width="30" height="30" as="geometry">
            <mxRectangle width="30" height="30" as="alternateBounds" />
          </mxGeometry>
        </mxCell>
        <mxCell id="z2yPPeF7bbDRtPcRpVXs-7" value="product_id int NOT NULL" style="shape=partialRectangle;overflow=hidden;connectable=0;fillColor=none;top=0;left=0;bottom=0;right=0;align=left;spacingLeft=6;" parent="z2yPPeF7bbDRtPcRpVXs-5" vertex="1">
          <mxGeometry x="30" width="220" height="30" as="geometry">
            <mxRectangle width="220" height="30" as="alternateBounds" />
          </mxGeometry>
        </mxCell>
        <mxCell id="z2yPPeF7bbDRtPcRpVXs-8" value="" style="shape=partialRectangle;collapsible=0;dropTarget=0;pointerEvents=0;fillColor=none;points=[[0,0.5],[1,0.5]];portConstraint=eastwest;top=0;left=0;right=0;bottom=0;" parent="z2yPPeF7bbDRtPcRpVXs-1" vertex="1">
          <mxGeometry y="90" width="250" height="30" as="geometry" />
        </mxCell>
        <mxCell id="z2yPPeF7bbDRtPcRpVXs-9" value="" style="shape=partialRectangle;overflow=hidden;connectable=0;fillColor=none;top=0;left=0;bottom=0;right=0;" parent="z2yPPeF7bbDRtPcRpVXs-8" vertex="1">
          <mxGeometry width="30" height="30" as="geometry">
            <mxRectangle width="30" height="30" as="alternateBounds" />
          </mxGeometry>
        </mxCell>
        <mxCell id="z2yPPeF7bbDRtPcRpVXs-10" value="customer_id int NOT NULL" style="shape=partialRectangle;overflow=hidden;connectable=0;fillColor=none;top=0;left=0;bottom=0;right=0;align=left;spacingLeft=6;" parent="z2yPPeF7bbDRtPcRpVXs-8" vertex="1">
          <mxGeometry x="30" width="220" height="30" as="geometry">
            <mxRectangle width="220" height="30" as="alternateBounds" />
          </mxGeometry>
        </mxCell>
        <mxCell id="z2yPPeF7bbDRtPcRpVXs-21" value="FK1" style="shape=partialRectangle;overflow=hidden;connectable=0;fillColor=none;top=0;left=0;bottom=0;right=0;" parent="z2yPPeF7bbDRtPcRpVXs-39" vertex="1">
          <mxGeometry y="90" width="30" height="30" as="geometry">
            <mxRectangle width="30" height="30" as="alternateBounds" />
          </mxGeometry>
        </mxCell>
        <mxCell id="z2yPPeF7bbDRtPcRpVXs-24" value="rating varchar(255) NOT NULL" style="shape=partialRectangle;overflow=hidden;connectable=0;fillColor=none;top=1;left=0;bottom=1;right=0;align=left;spacingLeft=6;" parent="z2yPPeF7bbDRtPcRpVXs-39" vertex="1">
          <mxGeometry x="30" y="119" width="220" height="30" as="geometry">
            <mxRectangle width="220" height="30" as="alternateBounds" />
          </mxGeometry>
        </mxCell>
        <mxCell id="z2yPPeF7bbDRtPcRpVXs-25" value="FK1" style="shape=partialRectangle;overflow=hidden;connectable=0;fillColor=none;top=1;left=0;bottom=1;right=1;" parent="z2yPPeF7bbDRtPcRpVXs-39" vertex="1">
          <mxGeometry y="119" width="30" height="30" as="geometry">
            <mxRectangle width="30" height="30" as="alternateBounds" />
          </mxGeometry>
        </mxCell>
        <mxCell id="z2yPPeF7bbDRtPcRpVXs-26" value="reviewContent text NOT NULL" style="shape=partialRectangle;overflow=hidden;connectable=0;fillColor=none;top=0;left=0;bottom=1;right=0;align=left;spacingLeft=6;" parent="z2yPPeF7bbDRtPcRpVXs-39" vertex="1">
          <mxGeometry x="30" y="149" width="220" height="30" as="geometry">
            <mxRectangle width="220" height="30" as="alternateBounds" />
          </mxGeometry>
        </mxCell>
        <mxCell id="z2yPPeF7bbDRtPcRpVXs-27" value="FK1" style="shape=partialRectangle;overflow=hidden;connectable=0;fillColor=none;top=0;left=0;bottom=1;right=1;" parent="z2yPPeF7bbDRtPcRpVXs-39" vertex="1">
          <mxGeometry y="149" width="30" height="30" as="geometry">
            <mxRectangle width="30" height="30" as="alternateBounds" />
          </mxGeometry>
        </mxCell>
        <mxCell id="klve59LVpFGcTII6Jys7-1" value="" style="group" parent="1" vertex="1" connectable="0">
          <mxGeometry x="60" y="-180" width="250" height="120" as="geometry" />
        </mxCell>
        <mxCell id="klve59LVpFGcTII6Jys7-2" value="" style="group" parent="klve59LVpFGcTII6Jys7-1" vertex="1" connectable="0">
          <mxGeometry width="250" height="90" as="geometry" />
        </mxCell>
        <mxCell id="klve59LVpFGcTII6Jys7-3" value="" style="group" parent="klve59LVpFGcTII6Jys7-2" vertex="1" connectable="0">
          <mxGeometry width="250" height="90" as="geometry" />
        </mxCell>
        <mxCell id="klve59LVpFGcTII6Jys7-4" value="Seller" style="shape=table;startSize=30;container=1;collapsible=1;childLayout=tableLayout;fixedRows=1;rowLines=0;fontStyle=1;align=center;resizeLast=1;" parent="klve59LVpFGcTII6Jys7-3" vertex="1">
          <mxGeometry width="250" height="90" as="geometry" />
        </mxCell>
        <mxCell id="klve59LVpFGcTII6Jys7-5" value="" style="shape=partialRectangle;collapsible=0;dropTarget=0;pointerEvents=0;fillColor=none;points=[[0,0.5],[1,0.5]];portConstraint=eastwest;top=0;left=0;right=0;bottom=1;" parent="klve59LVpFGcTII6Jys7-4" vertex="1">
          <mxGeometry y="30" width="250" height="30" as="geometry" />
        </mxCell>
        <mxCell id="klve59LVpFGcTII6Jys7-6" value="PK" style="shape=partialRectangle;overflow=hidden;connectable=0;fillColor=none;top=0;left=0;bottom=0;right=0;fontStyle=1;" parent="klve59LVpFGcTII6Jys7-5" vertex="1">
          <mxGeometry width="30" height="30" as="geometry">
            <mxRectangle width="30" height="30" as="alternateBounds" />
          </mxGeometry>
        </mxCell>
        <mxCell id="klve59LVpFGcTII6Jys7-7" value="id int NOT NULL " style="shape=partialRectangle;overflow=hidden;connectable=0;fillColor=none;top=0;left=0;bottom=0;right=0;align=left;spacingLeft=6;fontStyle=5;" parent="klve59LVpFGcTII6Jys7-5" vertex="1">
          <mxGeometry x="30" width="220" height="30" as="geometry">
            <mxRectangle width="220" height="30" as="alternateBounds" />
          </mxGeometry>
        </mxCell>
        <mxCell id="klve59LVpFGcTII6Jys7-8" value="" style="shape=partialRectangle;collapsible=0;dropTarget=0;pointerEvents=0;fillColor=none;points=[[0,0.5],[1,0.5]];portConstraint=eastwest;top=0;left=0;right=0;bottom=0;" parent="klve59LVpFGcTII6Jys7-4" vertex="1">
          <mxGeometry y="60" width="250" height="30" as="geometry" />
        </mxCell>
        <mxCell id="klve59LVpFGcTII6Jys7-9" value="" style="shape=partialRectangle;overflow=hidden;connectable=0;fillColor=none;top=0;left=0;bottom=1;right=0;" parent="klve59LVpFGcTII6Jys7-8" vertex="1">
          <mxGeometry width="30" height="30" as="geometry">
            <mxRectangle width="30" height="30" as="alternateBounds" />
          </mxGeometry>
        </mxCell>
        <mxCell id="klve59LVpFGcTII6Jys7-10" value="seller_name varchar(255)" style="shape=partialRectangle;overflow=hidden;connectable=0;fillColor=none;top=0;left=0;bottom=1;right=0;align=left;spacingLeft=6;" parent="klve59LVpFGcTII6Jys7-8" vertex="1">
          <mxGeometry x="30" width="220" height="30" as="geometry">
            <mxRectangle width="220" height="30" as="alternateBounds" />
          </mxGeometry>
        </mxCell>
        <mxCell id="klve59LVpFGcTII6Jys7-26" style="edgeStyle=orthogonalEdgeStyle;rounded=0;orthogonalLoop=1;jettySize=auto;html=1;entryX=1;entryY=0.5;entryDx=0;entryDy=0;" parent="1" source="klve59LVpFGcTII6Jys7-23" target="klve59LVpFGcTII6Jys7-5" edge="1">
          <mxGeometry relative="1" as="geometry">
            <Array as="points">
              <mxPoint x="340" y="185" />
              <mxPoint x="340" y="-135" />
            </Array>
          </mxGeometry>
        </mxCell>
        <mxCell id="d9jB_SJ0jmwAr9u0NcYT-1" value="" style="group" parent="1" vertex="1" connectable="0">
          <mxGeometry x="990" y="-310" width="250" height="120" as="geometry" />
        </mxCell>
        <mxCell id="d9jB_SJ0jmwAr9u0NcYT-2" value="" style="group" parent="d9jB_SJ0jmwAr9u0NcYT-1" vertex="1" connectable="0">
          <mxGeometry width="250" height="120" as="geometry" />
        </mxCell>
        <mxCell id="d9jB_SJ0jmwAr9u0NcYT-3" value="" style="group" parent="d9jB_SJ0jmwAr9u0NcYT-2" vertex="1" connectable="0">
          <mxGeometry width="250" height="120" as="geometry" />
        </mxCell>
        <mxCell id="d9jB_SJ0jmwAr9u0NcYT-7" value="" style="group" parent="d9jB_SJ0jmwAr9u0NcYT-3" vertex="1" connectable="0">
          <mxGeometry width="250" height="120" as="geometry" />
        </mxCell>
        <mxCell id="d9jB_SJ0jmwAr9u0NcYT-10" value="" style="group" parent="d9jB_SJ0jmwAr9u0NcYT-7" vertex="1" connectable="0">
          <mxGeometry width="250" height="120" as="geometry" />
        </mxCell>
        <mxCell id="d9jB_SJ0jmwAr9u0NcYT-11" value="Product_Gallery_Imgs" style="shape=table;startSize=30;container=1;collapsible=1;childLayout=tableLayout;fixedRows=1;rowLines=0;fontStyle=1;align=center;resizeLast=1;" parent="d9jB_SJ0jmwAr9u0NcYT-10" vertex="1">
          <mxGeometry width="250" height="120" as="geometry" />
        </mxCell>
        <mxCell id="d9jB_SJ0jmwAr9u0NcYT-12" value="" style="shape=partialRectangle;collapsible=0;dropTarget=0;pointerEvents=0;fillColor=none;points=[[0,0.5],[1,0.5]];portConstraint=eastwest;top=0;left=0;right=0;bottom=1;" parent="d9jB_SJ0jmwAr9u0NcYT-11" vertex="1">
          <mxGeometry y="30" width="250" height="30" as="geometry" />
        </mxCell>
        <mxCell id="d9jB_SJ0jmwAr9u0NcYT-13" value="PK" style="shape=partialRectangle;overflow=hidden;connectable=0;fillColor=none;top=0;left=0;bottom=0;right=0;fontStyle=1;" parent="d9jB_SJ0jmwAr9u0NcYT-12" vertex="1">
          <mxGeometry width="30" height="30" as="geometry">
            <mxRectangle width="30" height="30" as="alternateBounds" />
          </mxGeometry>
        </mxCell>
        <mxCell id="d9jB_SJ0jmwAr9u0NcYT-14" value="id int NOT NULL " style="shape=partialRectangle;overflow=hidden;connectable=0;fillColor=none;top=0;left=0;bottom=0;right=0;align=left;spacingLeft=6;fontStyle=5;" parent="d9jB_SJ0jmwAr9u0NcYT-12" vertex="1">
          <mxGeometry x="30" width="220" height="30" as="geometry">
            <mxRectangle width="220" height="30" as="alternateBounds" />
          </mxGeometry>
        </mxCell>
        <mxCell id="d9jB_SJ0jmwAr9u0NcYT-15" value="" style="shape=partialRectangle;collapsible=0;dropTarget=0;pointerEvents=0;fillColor=none;points=[[0,0.5],[1,0.5]];portConstraint=eastwest;top=0;left=0;right=0;bottom=0;" parent="d9jB_SJ0jmwAr9u0NcYT-11" vertex="1">
          <mxGeometry y="60" width="250" height="30" as="geometry" />
        </mxCell>
        <mxCell id="d9jB_SJ0jmwAr9u0NcYT-16" value="FK" style="shape=partialRectangle;overflow=hidden;connectable=0;fillColor=none;top=0;left=0;bottom=0;right=0;" parent="d9jB_SJ0jmwAr9u0NcYT-15" vertex="1">
          <mxGeometry width="30" height="30" as="geometry">
            <mxRectangle width="30" height="30" as="alternateBounds" />
          </mxGeometry>
        </mxCell>
        <mxCell id="d9jB_SJ0jmwAr9u0NcYT-17" value="product_id int unsigned" style="shape=partialRectangle;overflow=hidden;connectable=0;fillColor=none;top=0;left=0;bottom=0;right=0;align=left;spacingLeft=6;" parent="d9jB_SJ0jmwAr9u0NcYT-15" vertex="1">
          <mxGeometry x="30" width="220" height="30" as="geometry">
            <mxRectangle width="220" height="30" as="alternateBounds" />
          </mxGeometry>
        </mxCell>
        <mxCell id="d9jB_SJ0jmwAr9u0NcYT-18" value="" style="shape=partialRectangle;collapsible=0;dropTarget=0;pointerEvents=0;fillColor=none;points=[[0,0.5],[1,0.5]];portConstraint=eastwest;top=0;left=0;right=0;bottom=0;" parent="d9jB_SJ0jmwAr9u0NcYT-11" vertex="1">
          <mxGeometry y="90" width="250" height="30" as="geometry" />
        </mxCell>
        <mxCell id="d9jB_SJ0jmwAr9u0NcYT-19" value="" style="shape=partialRectangle;overflow=hidden;connectable=0;fillColor=none;top=1;left=0;bottom=0;right=0;" parent="d9jB_SJ0jmwAr9u0NcYT-18" vertex="1">
          <mxGeometry width="30" height="30" as="geometry">
            <mxRectangle width="30" height="30" as="alternateBounds" />
          </mxGeometry>
        </mxCell>
        <mxCell id="d9jB_SJ0jmwAr9u0NcYT-20" value="image_url varchar(255)" style="shape=partialRectangle;overflow=hidden;connectable=0;fillColor=none;top=1;left=0;bottom=0;right=0;align=left;spacingLeft=6;" parent="d9jB_SJ0jmwAr9u0NcYT-18" vertex="1">
          <mxGeometry x="30" width="220" height="30" as="geometry">
            <mxRectangle width="220" height="30" as="alternateBounds" />
          </mxGeometry>
        </mxCell>
        <mxCell id="d9jB_SJ0jmwAr9u0NcYT-28" style="edgeStyle=orthogonalEdgeStyle;rounded=0;orthogonalLoop=1;jettySize=auto;html=1;" parent="1" source="d9jB_SJ0jmwAr9u0NcYT-15" target="z2yPPeF7bbDRtPcRpVXs-2" edge="1">
          <mxGeometry relative="1" as="geometry" />
        </mxCell>
        <mxCell id="LPjPMCNm37q6bjUipHA6-1" value="" style="group" vertex="1" connectable="0" parent="1">
          <mxGeometry x="330" y="-490" width="250" height="290" as="geometry" />
        </mxCell>
        <mxCell id="LPjPMCNm37q6bjUipHA6-2" value="" style="group" vertex="1" connectable="0" parent="LPjPMCNm37q6bjUipHA6-1">
          <mxGeometry width="250" height="290" as="geometry" />
        </mxCell>
        <mxCell id="LPjPMCNm37q6bjUipHA6-3" value="purchased_price" style="shape=partialRectangle;overflow=hidden;connectable=1;fillColor=none;top=1;left=1;bottom=1;right=0;align=left;spacingLeft=6;labelBorderColor=none;" vertex="1" parent="LPjPMCNm37q6bjUipHA6-2">
          <mxGeometry x="30" y="149" width="220" height="30" as="geometry">
            <mxRectangle width="220" height="30" as="alternateBounds" />
          </mxGeometry>
        </mxCell>
        <mxCell id="LPjPMCNm37q6bjUipHA6-4" value="FK1" style="shape=partialRectangle;overflow=hidden;connectable=0;fillColor=none;top=1;left=0;bottom=0;right=0;" vertex="1" parent="LPjPMCNm37q6bjUipHA6-2">
          <mxGeometry y="119" width="30" height="30" as="geometry">
            <mxRectangle width="30" height="30" as="alternateBounds" />
          </mxGeometry>
        </mxCell>
        <mxCell id="LPjPMCNm37q6bjUipHA6-5" value="" style="shape=partialRectangle;overflow=hidden;connectable=0;fillColor=none;top=1;left=0;bottom=1;right=0;" vertex="1" parent="LPjPMCNm37q6bjUipHA6-2">
          <mxGeometry y="149" width="30" height="30" as="geometry">
            <mxRectangle width="30" height="30" as="alternateBounds" />
          </mxGeometry>
        </mxCell>
        <mxCell id="LPjPMCNm37q6bjUipHA6-6" value="" style="group" vertex="1" connectable="0" parent="LPjPMCNm37q6bjUipHA6-2">
          <mxGeometry width="250" height="290" as="geometry" />
        </mxCell>
        <mxCell id="LPjPMCNm37q6bjUipHA6-7" value="" style="shape=partialRectangle;overflow=hidden;connectable=1;fillColor=none;top=0;left=1;bottom=1;right=0;align=left;spacingLeft=6;labelBorderColor=none;" vertex="1" parent="LPjPMCNm37q6bjUipHA6-6">
          <mxGeometry x="30" y="210" width="220" height="30" as="geometry">
            <mxRectangle width="220" height="30" as="alternateBounds" />
          </mxGeometry>
        </mxCell>
        <mxCell id="LPjPMCNm37q6bjUipHA6-8" value="FK3" style="shape=partialRectangle;overflow=hidden;connectable=1;fillColor=none;top=0;left=0;bottom=1;right=0;" vertex="1" parent="LPjPMCNm37q6bjUipHA6-6">
          <mxGeometry y="210" width="30" height="30" as="geometry">
            <mxRectangle width="30" height="30" as="alternateBounds" />
          </mxGeometry>
        </mxCell>
        <mxCell id="LPjPMCNm37q6bjUipHA6-9" value="" style="group" vertex="1" connectable="0" parent="LPjPMCNm37q6bjUipHA6-6">
          <mxGeometry width="250" height="290" as="geometry" />
        </mxCell>
        <mxCell id="LPjPMCNm37q6bjUipHA6-10" value="Order" style="shape=table;startSize=30;container=1;collapsible=1;childLayout=tableLayout;fixedRows=1;rowLines=0;fontStyle=1;align=center;resizeLast=1;" vertex="1" parent="LPjPMCNm37q6bjUipHA6-9">
          <mxGeometry width="250" height="290" as="geometry" />
        </mxCell>
        <mxCell id="LPjPMCNm37q6bjUipHA6-11" value="" style="shape=partialRectangle;collapsible=0;dropTarget=0;pointerEvents=0;fillColor=none;points=[[0,0.5],[1,0.5]];portConstraint=eastwest;top=0;left=0;right=0;bottom=1;" vertex="1" parent="LPjPMCNm37q6bjUipHA6-10">
          <mxGeometry y="30" width="250" height="30" as="geometry" />
        </mxCell>
        <mxCell id="LPjPMCNm37q6bjUipHA6-12" value="PK" style="shape=partialRectangle;overflow=hidden;connectable=0;fillColor=none;top=0;left=0;bottom=0;right=0;fontStyle=1;" vertex="1" parent="LPjPMCNm37q6bjUipHA6-11">
          <mxGeometry width="30" height="30" as="geometry">
            <mxRectangle width="30" height="30" as="alternateBounds" />
          </mxGeometry>
        </mxCell>
        <mxCell id="LPjPMCNm37q6bjUipHA6-13" value="id int NOT NULL " style="shape=partialRectangle;overflow=hidden;connectable=0;fillColor=none;top=0;left=0;bottom=0;right=0;align=left;spacingLeft=6;fontStyle=5;" vertex="1" parent="LPjPMCNm37q6bjUipHA6-11">
          <mxGeometry x="30" width="220" height="30" as="geometry">
            <mxRectangle width="220" height="30" as="alternateBounds" />
          </mxGeometry>
        </mxCell>
        <mxCell id="LPjPMCNm37q6bjUipHA6-14" value="" style="shape=partialRectangle;collapsible=0;dropTarget=0;pointerEvents=0;fillColor=none;points=[[0,0.5],[1,0.5]];portConstraint=eastwest;top=0;left=0;right=0;bottom=0;" vertex="1" parent="LPjPMCNm37q6bjUipHA6-10">
          <mxGeometry y="60" width="250" height="30" as="geometry" />
        </mxCell>
        <mxCell id="LPjPMCNm37q6bjUipHA6-15" value="FK" style="shape=partialRectangle;overflow=hidden;connectable=0;fillColor=none;top=0;left=0;bottom=0;right=0;" vertex="1" parent="LPjPMCNm37q6bjUipHA6-14">
          <mxGeometry width="30" height="30" as="geometry">
            <mxRectangle width="30" height="30" as="alternateBounds" />
          </mxGeometry>
        </mxCell>
        <mxCell id="LPjPMCNm37q6bjUipHA6-16" value="customer_id int NOT NULL" style="shape=partialRectangle;overflow=hidden;connectable=0;fillColor=none;top=0;left=0;bottom=0;right=0;align=left;spacingLeft=6;" vertex="1" parent="LPjPMCNm37q6bjUipHA6-14">
          <mxGeometry x="30" width="220" height="30" as="geometry">
            <mxRectangle width="220" height="30" as="alternateBounds" />
          </mxGeometry>
        </mxCell>
        <mxCell id="LPjPMCNm37q6bjUipHA6-17" value="" style="shape=partialRectangle;collapsible=0;dropTarget=0;pointerEvents=0;fillColor=none;points=[[0,0.5],[1,0.5]];portConstraint=eastwest;top=0;left=0;right=0;bottom=0;" vertex="1" parent="LPjPMCNm37q6bjUipHA6-10">
          <mxGeometry y="90" width="250" height="30" as="geometry" />
        </mxCell>
        <mxCell id="LPjPMCNm37q6bjUipHA6-18" value="FK" style="shape=partialRectangle;overflow=hidden;connectable=0;fillColor=none;top=1;left=0;bottom=0;right=0;" vertex="1" parent="LPjPMCNm37q6bjUipHA6-17">
          <mxGeometry width="30" height="30" as="geometry">
            <mxRectangle width="30" height="30" as="alternateBounds" />
          </mxGeometry>
        </mxCell>
        <mxCell id="LPjPMCNm37q6bjUipHA6-19" value="product_id int NOT NULL" style="shape=partialRectangle;overflow=hidden;connectable=0;fillColor=none;top=1;left=0;bottom=0;right=0;align=left;spacingLeft=6;" vertex="1" parent="LPjPMCNm37q6bjUipHA6-17">
          <mxGeometry x="30" width="220" height="30" as="geometry">
            <mxRectangle width="220" height="30" as="alternateBounds" />
          </mxGeometry>
        </mxCell>
        <mxCell id="LPjPMCNm37q6bjUipHA6-20" value="" style="shape=partialRectangle;collapsible=0;dropTarget=0;pointerEvents=0;fillColor=none;points=[[0,0.5],[1,0.5]];portConstraint=eastwest;top=0;left=0;right=0;bottom=0;" vertex="1" parent="LPjPMCNm37q6bjUipHA6-10">
          <mxGeometry y="120" width="250" height="30" as="geometry" />
        </mxCell>
        <mxCell id="LPjPMCNm37q6bjUipHA6-21" value="" style="shape=partialRectangle;overflow=hidden;connectable=0;fillColor=none;top=0;left=0;bottom=0;right=0;" vertex="1" parent="LPjPMCNm37q6bjUipHA6-20">
          <mxGeometry width="30" height="30" as="geometry">
            <mxRectangle width="30" height="30" as="alternateBounds" />
          </mxGeometry>
        </mxCell>
        <mxCell id="LPjPMCNm37q6bjUipHA6-22" value="qty int" style="shape=partialRectangle;overflow=hidden;connectable=0;fillColor=none;top=1;left=0;bottom=0;right=0;align=left;spacingLeft=6;" vertex="1" parent="LPjPMCNm37q6bjUipHA6-20">
          <mxGeometry x="30" width="220" height="30" as="geometry">
            <mxRectangle width="220" height="30" as="alternateBounds" />
          </mxGeometry>
        </mxCell>
        <mxCell id="LPjPMCNm37q6bjUipHA6-23" value="created_at TimeStamp/Date" style="shape=partialRectangle;overflow=hidden;connectable=1;fillColor=none;top=0;left=1;bottom=1;right=0;align=left;spacingLeft=6;labelBorderColor=none;" vertex="1" parent="LPjPMCNm37q6bjUipHA6-9">
          <mxGeometry x="30" y="240" width="220" height="30" as="geometry">
            <mxRectangle width="220" height="30" as="alternateBounds" />
          </mxGeometry>
        </mxCell>
        <mxCell id="LPjPMCNm37q6bjUipHA6-24" value="" style="shape=partialRectangle;overflow=hidden;connectable=1;fillColor=none;top=0;left=0;bottom=1;right=0;" vertex="1" parent="LPjPMCNm37q6bjUipHA6-9">
          <mxGeometry y="240" width="30" height="30" as="geometry">
            <mxRectangle width="30" height="30" as="alternateBounds" />
          </mxGeometry>
        </mxCell>
        <mxCell id="LPjPMCNm37q6bjUipHA6-25" value="PaymentMode Enum(CC/DC/UPI/COD)" style="shape=partialRectangle;overflow=hidden;connectable=1;fillColor=none;top=0;left=1;bottom=1;right=0;align=left;spacingLeft=6;labelBorderColor=none;" vertex="1" parent="LPjPMCNm37q6bjUipHA6-1">
          <mxGeometry x="30" y="179" width="220" height="30" as="geometry">
            <mxRectangle width="220" height="30" as="alternateBounds" />
          </mxGeometry>
        </mxCell>
        <mxCell id="LPjPMCNm37q6bjUipHA6-26" value="" style="shape=partialRectangle;overflow=hidden;connectable=1;fillColor=none;top=0;left=0;bottom=1;right=0;" vertex="1" parent="LPjPMCNm37q6bjUipHA6-1">
          <mxGeometry y="179" width="30" height="30" as="geometry">
            <mxRectangle width="30" height="30" as="alternateBounds" />
          </mxGeometry>
        </mxCell>
        <mxCell id="LPjPMCNm37q6bjUipHA6-27" style="edgeStyle=orthogonalEdgeStyle;rounded=0;orthogonalLoop=1;jettySize=auto;html=1;entryX=1;entryY=0.5;entryDx=0;entryDy=0;" edge="1" parent="1" source="LPjPMCNm37q6bjUipHA6-14" target="z2yPPeF7bbDRtPcRpVXs-12">
          <mxGeometry relative="1" as="geometry" />
        </mxCell>
        <mxCell id="LPjPMCNm37q6bjUipHA6-28" style="edgeStyle=orthogonalEdgeStyle;rounded=0;orthogonalLoop=1;jettySize=auto;html=1;entryX=0;entryY=0.5;entryDx=0;entryDy=0;" edge="1" parent="1" source="LPjPMCNm37q6bjUipHA6-17" target="C-vyLk0tnHw3VtMMgP7b-3">
          <mxGeometry relative="1" as="geometry">
            <Array as="points">
              <mxPoint x="600" y="-385" />
              <mxPoint x="600" y="-170" />
              <mxPoint x="350" y="-170" />
              <mxPoint x="350" y="5" />
            </Array>
          </mxGeometry>
        </mxCell>
      </root>
    </mxGraphModel>
  </diagram>
</mxfile>
